<?xml version="1.0" encoding="UTF-8"?>
<svg id="Layer_1" data-name="Layer 1" xmlns="http://www.w3.org/2000/svg" xmlns:xlink="http://www.w3.org/1999/xlink" viewBox="0 0 812.27 136.3">
  <defs>
    <style>
      .cls-1 {
        fill: url(#linear-gradient);
      }

      .cls-1, .cls-2, .cls-3 {
        stroke-width: 0px;
      }

      .cls-3 {
        fill: url(#linear-gradient-2);
      }
    </style>
    <linearGradient id="linear-gradient" x1="748.37" y1="32.59" x2="794.93" y2="47.61" gradientUnits="userSpaceOnUse">
      <stop offset="0" stop-color="#b3ff19"/>
      <stop offset=".51" stop-color="#1cd41a"/>
      <stop offset="1" stop-color="#056f49"/>
    </linearGradient>
    <linearGradient id="linear-gradient-2" x1="790.94" y1="31.8" x2="767.91" y2="96.89" gradientUnits="userSpaceOnUse">
      <stop offset="0" stop-color="#b3ff19"/>
      <stop offset=".53" stop-color="#05c122"/>
      <stop offset="1" stop-color="#056f49"/>
    </linearGradient>
  </defs>
  <path class="cls-1" d="m755.29,6.86s-.02.01-.02.02v72.17s.01.02.02.02h17.06s.03-.01.03-.02l33.45-72.17s0-.02-.01-.02h-50.52,0Z"/>
  <path class="cls-3" d="m769.86,43.77s-.02.01-.02.02v72.09s0,.01.01,0l33.69-72.1s0-.02-.01-.02h-33.67Z"/>
  <path class="cls-2" d="m6.41,44.07h38.8c27.95,0,47.1,16.84,47.1,42.71s-19.15,42.71-47.1,42.71H6.41V44.07Zm37.83,69.19c16.96,0,28.07-10.13,28.07-26.48s-11.1-26.48-28.07-26.48h-18.06v52.96h18.06Z"/>
  <polygon class="cls-2" points="323.91 113.63 323.91 129.49 257.77 129.49 257.77 44.07 322.33 44.07 322.33 59.94 277.42 59.94 277.42 79.55 317.08 79.55 317.08 94.93 277.42 94.93 277.42 113.63 323.91 113.63"/>
  <polygon class="cls-2" points="413.97 44.07 413.97 129.49 397.74 129.49 355.15 77.63 355.15 129.49 335.63 129.49 335.63 44.07 351.98 44.07 394.45 95.94 394.45 44.07 413.97 44.07"/>
  <polygon class="cls-2" points="449.82 60.18 425.69 60.18 425.69 44.07 493.32 44.07 493.32 60.18 469.58 60.18 469.58 129.49 449.82 129.49 449.82 60.18"/>
  <path class="cls-2" d="m558.89,129.49l-16.47-23.8h-18.18v23.8h-19.77V44.07h36.97c22.82,0,37.1,11.84,37.1,30.99,0,12.81-6.47,22.21-17.57,26.97l19.15,27.46h-21.23Zm-18.55-69.31h-16.11v29.77h16.11c12.08,0,18.18-5.62,18.18-14.89s-6.1-14.89-18.18-14.89"/>
  <path class="cls-2" d="m647.35,111.19h-39.66l-7.57,18.31h-20.25l38.07-85.42h19.52l38.19,85.42h-20.74l-7.57-18.31Zm-6.22-15.01l-13.54-32.7-13.54,32.7h27.09Z"/>
  <polygon class="cls-2" points="681.5 44.07 701.26 44.07 701.26 113.38 744.1 113.38 744.1 129.49 681.5 129.49 681.5 44.07"/>
  <path class="cls-2" d="m234.85,69.46l12.69-11.71c-5.92-7.18-14.18-11.93-23.99-13.97l-16.44,16.33c2-.4,4.07-.65,6.26-.65,8.54,0,15.74,3.42,21.47,10.01"/>
  <path class="cls-2" d="m213.38,114.12c-15.99,0-27.33-11.23-27.33-27.33,0-2.26.27-4.39.7-6.44l-18.88,18.76c5.26,19.05,22.43,31.85,44.41,31.85,14.89,0,27.21-5.37,35.27-15.25l-12.69-11.71c-5.74,6.71-12.93,10.13-21.47,10.13"/>
  <polygon class="cls-2" points="122.96 113.63 122.96 94.93 162.61 94.93 162.61 79.55 122.96 79.55 122.96 59.94 167.86 59.94 167.86 44.07 103.31 44.07 103.31 129.49 129.8 129.49 145.14 113.63 122.96 113.63"/>
</svg>